<mxfile host="app.diagrams.net" modified="2024-02-09T07:32:55.310Z" agent="Mozilla/5.0 (Windows NT 10.0; Win64; x64) AppleWebKit/537.36 (KHTML, like Gecko) Chrome/121.0.0.0 Safari/537.36" etag="C7MgxcaSDC4kEEiBgVQd" version="23.1.1" type="device">
  <diagram name="Страница — 1" id="Oy06qOWnCH5pJBmnBr1O">
    <mxGraphModel dx="1273" dy="1130" grid="1" gridSize="10" guides="1" tooltips="1" connect="1" arrows="1" fold="1" page="1" pageScale="1" pageWidth="827" pageHeight="1169" math="0" shadow="0">
      <root>
        <mxCell id="0" />
        <mxCell id="1" parent="0" />
        <mxCell id="jY-5jK7i1B_0D9hz5LlO-2" value="Администратор" style="shape=umlActor;verticalLabelPosition=bottom;verticalAlign=top;html=1;outlineConnect=0;" parent="1" vertex="1">
          <mxGeometry x="1170" y="420" width="30" height="60" as="geometry" />
        </mxCell>
        <mxCell id="jY-5jK7i1B_0D9hz5LlO-4" value="Анализ услуг" style="ellipse;whiteSpace=wrap;html=1;" parent="1" vertex="1">
          <mxGeometry x="1573.5" y="190" width="110" height="40" as="geometry" />
        </mxCell>
        <mxCell id="jY-5jK7i1B_0D9hz5LlO-5" value="Добавление" style="ellipse;whiteSpace=wrap;html=1;" parent="1" vertex="1">
          <mxGeometry x="1577" y="240" width="103" height="30" as="geometry" />
        </mxCell>
        <mxCell id="jY-5jK7i1B_0D9hz5LlO-6" value="Действия с услугами" style="ellipse;whiteSpace=wrap;html=1;" parent="1" vertex="1">
          <mxGeometry x="1358" y="170" width="130" height="60" as="geometry" />
        </mxCell>
        <mxCell id="jY-5jK7i1B_0D9hz5LlO-7" value="Удаление" style="ellipse;whiteSpace=wrap;html=1;" parent="1" vertex="1">
          <mxGeometry x="1576.5" y="140" width="103" height="40" as="geometry" />
        </mxCell>
        <mxCell id="jY-5jK7i1B_0D9hz5LlO-8" value="Изменение" style="ellipse;whiteSpace=wrap;html=1;" parent="1" vertex="1">
          <mxGeometry x="1578" y="90" width="102" height="40" as="geometry" />
        </mxCell>
        <mxCell id="jY-5jK7i1B_0D9hz5LlO-9" value="" style="endArrow=none;html=1;rounded=0;entryX=0.5;entryY=1;entryDx=0;entryDy=0;" parent="1" target="jY-5jK7i1B_0D9hz5LlO-6" edge="1">
          <mxGeometry width="50" height="50" relative="1" as="geometry">
            <mxPoint x="1220" y="420" as="sourcePoint" />
            <mxPoint x="640" y="570" as="targetPoint" />
          </mxGeometry>
        </mxCell>
        <mxCell id="jY-5jK7i1B_0D9hz5LlO-13" value="include" style="endArrow=open;endSize=12;dashed=1;html=1;rounded=0;exitX=0.986;exitY=0.667;exitDx=0;exitDy=0;exitPerimeter=0;" parent="1" target="jY-5jK7i1B_0D9hz5LlO-4" edge="1" source="jY-5jK7i1B_0D9hz5LlO-6">
          <mxGeometry width="160" relative="1" as="geometry">
            <mxPoint x="1480" y="100" as="sourcePoint" />
            <mxPoint x="1640" y="100" as="targetPoint" />
          </mxGeometry>
        </mxCell>
        <mxCell id="jY-5jK7i1B_0D9hz5LlO-14" value="include" style="endArrow=open;endSize=12;dashed=1;html=1;rounded=0;entryX=0.298;entryY=0.991;entryDx=0;entryDy=0;entryPerimeter=0;exitX=1;exitY=0.5;exitDx=0;exitDy=0;" parent="1" target="jY-5jK7i1B_0D9hz5LlO-7" edge="1" source="jY-5jK7i1B_0D9hz5LlO-6">
          <mxGeometry width="160" relative="1" as="geometry">
            <mxPoint x="1437" y="90" as="sourcePoint" />
            <mxPoint x="1506" y="69" as="targetPoint" />
          </mxGeometry>
        </mxCell>
        <mxCell id="jY-5jK7i1B_0D9hz5LlO-15" value="include" style="endArrow=open;endSize=12;dashed=1;html=1;rounded=0;entryX=0.063;entryY=0.824;entryDx=0;entryDy=0;entryPerimeter=0;exitX=0.962;exitY=0.28;exitDx=0;exitDy=0;exitPerimeter=0;" parent="1" source="jY-5jK7i1B_0D9hz5LlO-6" target="jY-5jK7i1B_0D9hz5LlO-8" edge="1">
          <mxGeometry width="160" relative="1" as="geometry">
            <mxPoint x="1400.5" y="90" as="sourcePoint" />
            <mxPoint x="1469.5" y="69" as="targetPoint" />
          </mxGeometry>
        </mxCell>
        <mxCell id="jY-5jK7i1B_0D9hz5LlO-16" value="include" style="endArrow=open;endSize=12;dashed=1;html=1;rounded=0;" parent="1" source="jY-5jK7i1B_0D9hz5LlO-6" target="jY-5jK7i1B_0D9hz5LlO-5" edge="1">
          <mxGeometry width="160" relative="1" as="geometry">
            <mxPoint x="1736.0000000000005" y="190" as="sourcePoint" />
            <mxPoint x="1945" y="179" as="targetPoint" />
          </mxGeometry>
        </mxCell>
        <mxCell id="jY-5jK7i1B_0D9hz5LlO-19" value="Добавление сотрудников" style="ellipse;whiteSpace=wrap;html=1;" parent="1" vertex="1">
          <mxGeometry x="1566" y="510" width="124" height="40" as="geometry" />
        </mxCell>
        <mxCell id="jY-5jK7i1B_0D9hz5LlO-20" value="Действия с сотрудниками" style="ellipse;whiteSpace=wrap;html=1;" parent="1" vertex="1">
          <mxGeometry x="1350" y="445" width="130" height="60" as="geometry" />
        </mxCell>
        <mxCell id="jY-5jK7i1B_0D9hz5LlO-21" value="Удаление сотрудников" style="ellipse;whiteSpace=wrap;html=1;" parent="1" vertex="1">
          <mxGeometry x="1561" y="450" width="134" height="50" as="geometry" />
        </mxCell>
        <mxCell id="jY-5jK7i1B_0D9hz5LlO-22" value="Изменение сотрудников" style="ellipse;whiteSpace=wrap;html=1;" parent="1" vertex="1">
          <mxGeometry x="1567" y="400" width="124" height="40" as="geometry" />
        </mxCell>
        <mxCell id="jY-5jK7i1B_0D9hz5LlO-24" value="include" style="endArrow=open;endSize=12;dashed=1;html=1;rounded=0;entryX=0;entryY=0.5;entryDx=0;entryDy=0;exitX=1;exitY=0.5;exitDx=0;exitDy=0;" parent="1" source="jY-5jK7i1B_0D9hz5LlO-20" target="jY-5jK7i1B_0D9hz5LlO-21" edge="1">
          <mxGeometry width="160" relative="1" as="geometry">
            <mxPoint x="1425" y="420" as="sourcePoint" />
            <mxPoint x="1494" y="399" as="targetPoint" />
          </mxGeometry>
        </mxCell>
        <mxCell id="jY-5jK7i1B_0D9hz5LlO-25" value="include" style="endArrow=open;endSize=12;dashed=1;html=1;rounded=0;exitX=0.932;exitY=0.152;exitDx=0;exitDy=0;exitPerimeter=0;entryX=0;entryY=0.5;entryDx=0;entryDy=0;" parent="1" source="jY-5jK7i1B_0D9hz5LlO-20" target="jY-5jK7i1B_0D9hz5LlO-22" edge="1">
          <mxGeometry width="160" relative="1" as="geometry">
            <mxPoint x="1388.5" y="420" as="sourcePoint" />
            <mxPoint x="1591" y="340" as="targetPoint" />
          </mxGeometry>
        </mxCell>
        <mxCell id="jY-5jK7i1B_0D9hz5LlO-26" value="include" style="endArrow=open;endSize=12;dashed=1;html=1;rounded=0;exitX=0.974;exitY=0.715;exitDx=0;exitDy=0;exitPerimeter=0;" parent="1" source="jY-5jK7i1B_0D9hz5LlO-20" target="jY-5jK7i1B_0D9hz5LlO-19" edge="1">
          <mxGeometry width="160" relative="1" as="geometry">
            <mxPoint x="1498" y="460" as="sourcePoint" />
            <mxPoint x="1567" y="439" as="targetPoint" />
          </mxGeometry>
        </mxCell>
        <mxCell id="jY-5jK7i1B_0D9hz5LlO-28" value="" style="endArrow=none;html=1;rounded=0;" parent="1" target="jY-5jK7i1B_0D9hz5LlO-20" edge="1">
          <mxGeometry width="50" height="50" relative="1" as="geometry">
            <mxPoint x="1220" y="470" as="sourcePoint" />
            <mxPoint x="1193" y="380" as="targetPoint" />
          </mxGeometry>
        </mxCell>
        <mxCell id="jY-5jK7i1B_0D9hz5LlO-32" value="" style="endArrow=none;html=1;rounded=0;" parent="1" edge="1" target="sptsj7nyR6xT8UWdYwcq-15">
          <mxGeometry width="50" height="50" relative="1" as="geometry">
            <mxPoint x="1220" y="440" as="sourcePoint" />
            <mxPoint x="1370" y="270" as="targetPoint" />
          </mxGeometry>
        </mxCell>
        <mxCell id="jY-5jK7i1B_0D9hz5LlO-33" value="Удаление клиентов" style="ellipse;whiteSpace=wrap;html=1;" parent="1" vertex="1">
          <mxGeometry x="1350.5" y="739" width="145" height="44" as="geometry" />
        </mxCell>
        <mxCell id="jY-5jK7i1B_0D9hz5LlO-34" value="" style="endArrow=none;html=1;rounded=0;exitX=0.396;exitY=0.036;exitDx=0;exitDy=0;exitPerimeter=0;" parent="1" edge="1" source="jY-5jK7i1B_0D9hz5LlO-33">
          <mxGeometry width="50" height="50" relative="1" as="geometry">
            <mxPoint x="1080" y="697" as="sourcePoint" />
            <mxPoint x="1210" y="510" as="targetPoint" />
          </mxGeometry>
        </mxCell>
        <mxCell id="jY-5jK7i1B_0D9hz5LlO-35" value="Клиент&lt;br&gt;" style="shape=umlActor;verticalLabelPosition=bottom;verticalAlign=top;html=1;outlineConnect=0;" parent="1" vertex="1">
          <mxGeometry x="2170" y="420" width="27" height="60" as="geometry" />
        </mxCell>
        <mxCell id="sptsj7nyR6xT8UWdYwcq-4" value="Информация об услугах" style="ellipse;whiteSpace=wrap;html=1;" vertex="1" parent="1">
          <mxGeometry x="1567" y="690" width="124" height="50" as="geometry" />
        </mxCell>
        <mxCell id="sptsj7nyR6xT8UWdYwcq-5" value="Получить информацию" style="ellipse;whiteSpace=wrap;html=1;" vertex="1" parent="1">
          <mxGeometry x="1350" y="625" width="130" height="60" as="geometry" />
        </mxCell>
        <mxCell id="sptsj7nyR6xT8UWdYwcq-6" value="Информация о сотрудниках" style="ellipse;whiteSpace=wrap;html=1;" vertex="1" parent="1">
          <mxGeometry x="1567" y="630" width="124" height="50" as="geometry" />
        </mxCell>
        <mxCell id="sptsj7nyR6xT8UWdYwcq-7" value="Информация о клиентах" style="ellipse;whiteSpace=wrap;html=1;" vertex="1" parent="1">
          <mxGeometry x="1566" y="570" width="124" height="50" as="geometry" />
        </mxCell>
        <mxCell id="sptsj7nyR6xT8UWdYwcq-8" value="include" style="endArrow=open;endSize=12;dashed=1;html=1;rounded=0;entryX=0;entryY=0.5;entryDx=0;entryDy=0;exitX=1;exitY=0.5;exitDx=0;exitDy=0;" edge="1" parent="1" source="sptsj7nyR6xT8UWdYwcq-5" target="sptsj7nyR6xT8UWdYwcq-6">
          <mxGeometry width="160" relative="1" as="geometry">
            <mxPoint x="1387" y="740" as="sourcePoint" />
            <mxPoint x="1456" y="719" as="targetPoint" />
          </mxGeometry>
        </mxCell>
        <mxCell id="sptsj7nyR6xT8UWdYwcq-9" value="include" style="endArrow=open;endSize=12;dashed=1;html=1;rounded=0;entryX=0;entryY=1;entryDx=0;entryDy=0;exitX=0.991;exitY=0.312;exitDx=0;exitDy=0;exitPerimeter=0;" edge="1" parent="1" source="sptsj7nyR6xT8UWdYwcq-5" target="sptsj7nyR6xT8UWdYwcq-7">
          <mxGeometry width="160" relative="1" as="geometry">
            <mxPoint x="1350.5" y="740" as="sourcePoint" />
            <mxPoint x="1419.5" y="719" as="targetPoint" />
          </mxGeometry>
        </mxCell>
        <mxCell id="sptsj7nyR6xT8UWdYwcq-10" value="include" style="endArrow=open;endSize=12;dashed=1;html=1;rounded=0;exitX=0.934;exitY=0.76;exitDx=0;exitDy=0;exitPerimeter=0;" edge="1" parent="1" source="sptsj7nyR6xT8UWdYwcq-5" target="sptsj7nyR6xT8UWdYwcq-4">
          <mxGeometry width="160" relative="1" as="geometry">
            <mxPoint x="1460" y="780" as="sourcePoint" />
            <mxPoint x="1529" y="759" as="targetPoint" />
          </mxGeometry>
        </mxCell>
        <mxCell id="sptsj7nyR6xT8UWdYwcq-11" value="" style="endArrow=none;html=1;rounded=0;" edge="1" parent="1" target="sptsj7nyR6xT8UWdYwcq-5">
          <mxGeometry width="50" height="50" relative="1" as="geometry">
            <mxPoint x="1230" y="480" as="sourcePoint" />
            <mxPoint x="1155" y="700" as="targetPoint" />
          </mxGeometry>
        </mxCell>
        <mxCell id="sptsj7nyR6xT8UWdYwcq-12" value="Информация о записях" style="ellipse;whiteSpace=wrap;html=1;" vertex="1" parent="1">
          <mxGeometry x="1566" y="750" width="124" height="50" as="geometry" />
        </mxCell>
        <mxCell id="sptsj7nyR6xT8UWdYwcq-13" value="include" style="endArrow=open;endSize=12;dashed=1;html=1;rounded=0;exitX=0.851;exitY=0.94;exitDx=0;exitDy=0;exitPerimeter=0;" edge="1" parent="1" target="sptsj7nyR6xT8UWdYwcq-12" source="sptsj7nyR6xT8UWdYwcq-5">
          <mxGeometry width="160" relative="1" as="geometry">
            <mxPoint x="1406" y="800" as="sourcePoint" />
            <mxPoint x="1483" y="794" as="targetPoint" />
          </mxGeometry>
        </mxCell>
        <mxCell id="sptsj7nyR6xT8UWdYwcq-14" value="Удаление комментариев" style="ellipse;whiteSpace=wrap;html=1;" vertex="1" parent="1">
          <mxGeometry x="1566" y="340" width="124" height="40" as="geometry" />
        </mxCell>
        <mxCell id="sptsj7nyR6xT8UWdYwcq-15" value="Действия с комментариями" style="ellipse;whiteSpace=wrap;html=1;" vertex="1" parent="1">
          <mxGeometry x="1358" y="330" width="130" height="60" as="geometry" />
        </mxCell>
        <mxCell id="sptsj7nyR6xT8UWdYwcq-16" value="Просмотр комментариев" style="ellipse;whiteSpace=wrap;html=1;" vertex="1" parent="1">
          <mxGeometry x="1571" y="290" width="114" height="40" as="geometry" />
        </mxCell>
        <mxCell id="sptsj7nyR6xT8UWdYwcq-17" value="include" style="endArrow=open;endSize=12;dashed=1;html=1;rounded=0;entryX=0;entryY=0.5;entryDx=0;entryDy=0;exitX=0.908;exitY=0.195;exitDx=0;exitDy=0;exitPerimeter=0;" edge="1" parent="1" source="sptsj7nyR6xT8UWdYwcq-15" target="sptsj7nyR6xT8UWdYwcq-16">
          <mxGeometry width="160" relative="1" as="geometry">
            <mxPoint x="1425" y="206" as="sourcePoint" />
            <mxPoint x="1494" y="185" as="targetPoint" />
          </mxGeometry>
        </mxCell>
        <mxCell id="sptsj7nyR6xT8UWdYwcq-19" value="include" style="endArrow=open;endSize=12;dashed=1;html=1;rounded=0;exitX=1;exitY=0.5;exitDx=0;exitDy=0;" edge="1" parent="1" source="sptsj7nyR6xT8UWdYwcq-15" target="sptsj7nyR6xT8UWdYwcq-14">
          <mxGeometry width="160" relative="1" as="geometry">
            <mxPoint x="1498" y="246" as="sourcePoint" />
            <mxPoint x="1567" y="225" as="targetPoint" />
          </mxGeometry>
        </mxCell>
        <mxCell id="sptsj7nyR6xT8UWdYwcq-21" value="Информация об услугах" style="ellipse;whiteSpace=wrap;html=1;" vertex="1" parent="1">
          <mxGeometry x="1720" y="185" width="124" height="50" as="geometry" />
        </mxCell>
        <mxCell id="sptsj7nyR6xT8UWdYwcq-22" value="Получить информацию" style="ellipse;whiteSpace=wrap;html=1;" vertex="1" parent="1">
          <mxGeometry x="1920" y="170" width="130" height="60" as="geometry" />
        </mxCell>
        <mxCell id="sptsj7nyR6xT8UWdYwcq-23" value="Информация о сотрудниках" style="ellipse;whiteSpace=wrap;html=1;" vertex="1" parent="1">
          <mxGeometry x="1720" y="125" width="124" height="50" as="geometry" />
        </mxCell>
        <mxCell id="sptsj7nyR6xT8UWdYwcq-25" value="include" style="endArrow=open;endSize=12;dashed=1;html=1;rounded=0;exitX=0.021;exitY=0.356;exitDx=0;exitDy=0;exitPerimeter=0;entryX=0.952;entryY=0.727;entryDx=0;entryDy=0;entryPerimeter=0;" edge="1" parent="1" source="sptsj7nyR6xT8UWdYwcq-22" target="sptsj7nyR6xT8UWdYwcq-23">
          <mxGeometry width="160" relative="1" as="geometry">
            <mxPoint x="1920" y="200" as="sourcePoint" />
            <mxPoint x="1840" y="205" as="targetPoint" />
          </mxGeometry>
        </mxCell>
        <mxCell id="sptsj7nyR6xT8UWdYwcq-27" value="include" style="endArrow=open;endSize=12;dashed=1;html=1;rounded=0;exitX=-0.01;exitY=0.622;exitDx=0;exitDy=0;exitPerimeter=0;entryX=1;entryY=0.5;entryDx=0;entryDy=0;" edge="1" parent="1" source="sptsj7nyR6xT8UWdYwcq-22" target="sptsj7nyR6xT8UWdYwcq-21">
          <mxGeometry width="160" relative="1" as="geometry">
            <mxPoint x="1799.9999999999995" y="234.9999999999999" as="sourcePoint" />
            <mxPoint x="1850" y="205" as="targetPoint" />
          </mxGeometry>
        </mxCell>
        <mxCell id="sptsj7nyR6xT8UWdYwcq-28" value="Информация о записях" style="ellipse;whiteSpace=wrap;html=1;" vertex="1" parent="1">
          <mxGeometry x="1720" y="245" width="124" height="50" as="geometry" />
        </mxCell>
        <mxCell id="sptsj7nyR6xT8UWdYwcq-29" value="include" style="endArrow=open;endSize=12;dashed=1;html=1;rounded=0;" edge="1" parent="1" source="sptsj7nyR6xT8UWdYwcq-22" target="sptsj7nyR6xT8UWdYwcq-28">
          <mxGeometry width="160" relative="1" as="geometry">
            <mxPoint x="1976" y="345" as="sourcePoint" />
            <mxPoint x="2053" y="339" as="targetPoint" />
          </mxGeometry>
        </mxCell>
        <mxCell id="sptsj7nyR6xT8UWdYwcq-30" value="Просмотр" style="ellipse;whiteSpace=wrap;html=1;" vertex="1" parent="1">
          <mxGeometry x="1732" y="370" width="100" height="40" as="geometry" />
        </mxCell>
        <mxCell id="sptsj7nyR6xT8UWdYwcq-31" value="Действия с личной записью" style="ellipse;whiteSpace=wrap;html=1;" vertex="1" parent="1">
          <mxGeometry x="1920" y="345" width="130" height="60" as="geometry" />
        </mxCell>
        <mxCell id="sptsj7nyR6xT8UWdYwcq-32" value="Добавление" style="ellipse;whiteSpace=wrap;html=1;" vertex="1" parent="1">
          <mxGeometry x="1732" y="320" width="100" height="40" as="geometry" />
        </mxCell>
        <mxCell id="sptsj7nyR6xT8UWdYwcq-33" value="include" style="endArrow=open;endSize=12;dashed=1;html=1;rounded=0;exitX=0.021;exitY=0.356;exitDx=0;exitDy=0;exitPerimeter=0;entryX=0.952;entryY=0.727;entryDx=0;entryDy=0;entryPerimeter=0;" edge="1" parent="1" source="sptsj7nyR6xT8UWdYwcq-31" target="sptsj7nyR6xT8UWdYwcq-32">
          <mxGeometry width="160" relative="1" as="geometry">
            <mxPoint x="1920" y="390" as="sourcePoint" />
            <mxPoint x="1840" y="395" as="targetPoint" />
          </mxGeometry>
        </mxCell>
        <mxCell id="sptsj7nyR6xT8UWdYwcq-34" value="include" style="endArrow=open;endSize=12;dashed=1;html=1;rounded=0;exitX=-0.01;exitY=0.622;exitDx=0;exitDy=0;exitPerimeter=0;entryX=1;entryY=0.5;entryDx=0;entryDy=0;" edge="1" parent="1" source="sptsj7nyR6xT8UWdYwcq-31" target="sptsj7nyR6xT8UWdYwcq-30">
          <mxGeometry width="160" relative="1" as="geometry">
            <mxPoint x="1799.9999999999995" y="424.9999999999999" as="sourcePoint" />
            <mxPoint x="1850" y="395" as="targetPoint" />
          </mxGeometry>
        </mxCell>
        <mxCell id="sptsj7nyR6xT8UWdYwcq-35" value="Изменение" style="ellipse;whiteSpace=wrap;html=1;" vertex="1" parent="1">
          <mxGeometry x="1732" y="420" width="100" height="40" as="geometry" />
        </mxCell>
        <mxCell id="sptsj7nyR6xT8UWdYwcq-36" value="include" style="endArrow=open;endSize=12;dashed=1;html=1;rounded=0;" edge="1" parent="1" source="sptsj7nyR6xT8UWdYwcq-31" target="sptsj7nyR6xT8UWdYwcq-35">
          <mxGeometry width="160" relative="1" as="geometry">
            <mxPoint x="1976" y="535" as="sourcePoint" />
            <mxPoint x="2053" y="529" as="targetPoint" />
          </mxGeometry>
        </mxCell>
        <mxCell id="sptsj7nyR6xT8UWdYwcq-37" value="Удаление" style="ellipse;whiteSpace=wrap;html=1;" vertex="1" parent="1">
          <mxGeometry x="1732" y="474" width="100" height="36.5" as="geometry" />
        </mxCell>
        <mxCell id="sptsj7nyR6xT8UWdYwcq-38" value="include" style="endArrow=open;endSize=12;dashed=1;html=1;rounded=0;exitX=0;exitY=1;exitDx=0;exitDy=0;" edge="1" parent="1" target="sptsj7nyR6xT8UWdYwcq-37" source="sptsj7nyR6xT8UWdYwcq-31">
          <mxGeometry width="160" relative="1" as="geometry">
            <mxPoint x="1933" y="471.5" as="sourcePoint" />
            <mxPoint x="2053" y="592.5" as="targetPoint" />
          </mxGeometry>
        </mxCell>
        <mxCell id="sptsj7nyR6xT8UWdYwcq-39" value="" style="endArrow=none;html=1;rounded=0;exitX=1;exitY=0.5;exitDx=0;exitDy=0;" edge="1" parent="1" source="sptsj7nyR6xT8UWdYwcq-22">
          <mxGeometry width="50" height="50" relative="1" as="geometry">
            <mxPoint x="2020" y="285" as="sourcePoint" />
            <mxPoint x="2160" y="410" as="targetPoint" />
          </mxGeometry>
        </mxCell>
        <mxCell id="sptsj7nyR6xT8UWdYwcq-40" value="" style="endArrow=none;html=1;rounded=0;" edge="1" parent="1" source="sptsj7nyR6xT8UWdYwcq-31">
          <mxGeometry width="50" height="50" relative="1" as="geometry">
            <mxPoint x="2060" y="210" as="sourcePoint" />
            <mxPoint x="2160" y="440" as="targetPoint" />
          </mxGeometry>
        </mxCell>
        <mxCell id="sptsj7nyR6xT8UWdYwcq-41" value="Просмотр" style="ellipse;whiteSpace=wrap;html=1;" vertex="1" parent="1">
          <mxGeometry x="1732" y="575" width="100" height="40" as="geometry" />
        </mxCell>
        <mxCell id="sptsj7nyR6xT8UWdYwcq-42" value="Действия с отзывами" style="ellipse;whiteSpace=wrap;html=1;" vertex="1" parent="1">
          <mxGeometry x="1920" y="518" width="130" height="60" as="geometry" />
        </mxCell>
        <mxCell id="sptsj7nyR6xT8UWdYwcq-43" value="Добавление" style="ellipse;whiteSpace=wrap;html=1;" vertex="1" parent="1">
          <mxGeometry x="1732" y="525" width="100" height="40" as="geometry" />
        </mxCell>
        <mxCell id="sptsj7nyR6xT8UWdYwcq-44" value="include" style="endArrow=open;endSize=12;dashed=1;html=1;rounded=0;exitX=0.021;exitY=0.356;exitDx=0;exitDy=0;exitPerimeter=0;entryX=0.952;entryY=0.727;entryDx=0;entryDy=0;entryPerimeter=0;" edge="1" parent="1" source="sptsj7nyR6xT8UWdYwcq-42" target="sptsj7nyR6xT8UWdYwcq-43">
          <mxGeometry width="160" relative="1" as="geometry">
            <mxPoint x="1920" y="595" as="sourcePoint" />
            <mxPoint x="1840" y="600" as="targetPoint" />
          </mxGeometry>
        </mxCell>
        <mxCell id="sptsj7nyR6xT8UWdYwcq-45" value="include" style="endArrow=open;endSize=12;dashed=1;html=1;rounded=0;exitX=-0.01;exitY=0.622;exitDx=0;exitDy=0;exitPerimeter=0;entryX=1;entryY=0.5;entryDx=0;entryDy=0;" edge="1" parent="1" source="sptsj7nyR6xT8UWdYwcq-42" target="sptsj7nyR6xT8UWdYwcq-41">
          <mxGeometry width="160" relative="1" as="geometry">
            <mxPoint x="1799.9999999999995" y="629.9999999999999" as="sourcePoint" />
            <mxPoint x="1850" y="600" as="targetPoint" />
          </mxGeometry>
        </mxCell>
        <mxCell id="sptsj7nyR6xT8UWdYwcq-48" value="Удаление" style="ellipse;whiteSpace=wrap;html=1;" vertex="1" parent="1">
          <mxGeometry x="1732" y="625" width="100" height="36.5" as="geometry" />
        </mxCell>
        <mxCell id="sptsj7nyR6xT8UWdYwcq-49" value="include" style="endArrow=open;endSize=12;dashed=1;html=1;rounded=0;exitX=0;exitY=1;exitDx=0;exitDy=0;" edge="1" parent="1" source="sptsj7nyR6xT8UWdYwcq-42" target="sptsj7nyR6xT8UWdYwcq-48">
          <mxGeometry width="160" relative="1" as="geometry">
            <mxPoint x="1933" y="676.5" as="sourcePoint" />
            <mxPoint x="2053" y="797.5" as="targetPoint" />
          </mxGeometry>
        </mxCell>
        <mxCell id="sptsj7nyR6xT8UWdYwcq-50" value="" style="endArrow=none;html=1;rounded=0;exitX=1;exitY=0;exitDx=0;exitDy=0;" edge="1" parent="1" source="sptsj7nyR6xT8UWdYwcq-42">
          <mxGeometry width="50" height="50" relative="1" as="geometry">
            <mxPoint x="2021" y="358" as="sourcePoint" />
            <mxPoint x="2160" y="460" as="targetPoint" />
          </mxGeometry>
        </mxCell>
        <mxCell id="sptsj7nyR6xT8UWdYwcq-51" value="Регистрация" style="ellipse;whiteSpace=wrap;html=1;" vertex="1" parent="1">
          <mxGeometry x="1925" y="645" width="120" height="50" as="geometry" />
        </mxCell>
        <mxCell id="sptsj7nyR6xT8UWdYwcq-52" value="Авторизация" style="ellipse;whiteSpace=wrap;html=1;" vertex="1" parent="1">
          <mxGeometry x="1925" y="735" width="120" height="40" as="geometry" />
        </mxCell>
        <mxCell id="sptsj7nyR6xT8UWdYwcq-53" value="" style="endArrow=none;html=1;rounded=0;exitX=1;exitY=0;exitDx=0;exitDy=0;" edge="1" parent="1" source="sptsj7nyR6xT8UWdYwcq-51">
          <mxGeometry width="50" height="50" relative="1" as="geometry">
            <mxPoint x="2050" y="562" as="sourcePoint" />
            <mxPoint x="2159" y="470" as="targetPoint" />
          </mxGeometry>
        </mxCell>
        <mxCell id="sptsj7nyR6xT8UWdYwcq-54" value="" style="endArrow=none;html=1;rounded=0;exitX=1;exitY=0;exitDx=0;exitDy=0;" edge="1" parent="1" source="sptsj7nyR6xT8UWdYwcq-52">
          <mxGeometry width="50" height="50" relative="1" as="geometry">
            <mxPoint x="2109" y="719.25" as="sourcePoint" />
            <mxPoint x="2180" y="510" as="targetPoint" />
          </mxGeometry>
        </mxCell>
      </root>
    </mxGraphModel>
  </diagram>
</mxfile>
